<?xml version="1.0" encoding="UTF-8" standalone="no"?>
<!-- Created with Inkscape (http://www.inkscape.org/) -->
<svg id="svg2" xmlns="http://www.w3.org/2000/svg" xml:space="preserve" height="81" width="600" version="1.0" viewBox="0 0 568.75 77.5"><path id="Liebherr" d="m3848 619.34l457.2 0.06c143.3 0 197.4-96.84 197.4-180.33 0-142.22-128.2-167.73-128.2-167.73l166.1-265.13-334.3 0.0048-71.8 176.14 0.1-176.14-607.9 0.0048-71.8 176.14 0.1-176.14-286.5 0.0048v613.13l457.1 0.06c143.3 0 197.5-96.84 197.5-180.33 0-142.22-128.3-167.73-128.3-167.73l153.3-244.69v592.69zm-2282.3-116.7v-116.12h41.3c21.9 0 38.2 13.34 45.8 28.99 6 12.44 10.4 36.76-0.6 59.43-13.2 27.5-38.9 27.43-44.9 27.72l-41.6-0.02zm-291.4 116.76s416.7-0.12 487.9-0.05c136 0.15 168.1-102 168.3-161.97 0.4-107.72-75-134.16-75-134.16s81.2-30.63 81.2-145.46c0-178.88-163.9-171.52-189.3-171.52l-473.1 0.0022v613.16zm1865.7-613.23v140.83h-132.7v111.77h131.3v121.96h-131.3v118.09h132.7v120.51h-435.9v-613.16l435.9 0.0019zm-777.5 0h302.9v613.16h-302.9v-232.28h-98.2v232.28h-309.9v-613.16l309.9 0.0019v257.69h98.2v-257.69 0.0019zm-1115.4 0v140.83h-132.7v111.77h131.3v121.96h-131.3v118.09h132.7v120.51h-435.88v-613.16l435.88 0.0019zm-772.57 613.16h297.88v-613.16l-297.88 0.0019v613.16zm-29.58-613.16v169.26h-132.66v443.9h-307.24l0.0008-613.16 439.9 0.0019zm3004.6 496.5v-145.27h36.3c39.3 0 53.3 18.65 61.9 38.19 6.8 15.55 11.4 43.64 0 72.41-6.2 15.6-22.6 34.66-61.9 34.66l-36.3 0.01zm679.7 0v-145.27h36.3c39.3 0 53.3 18.65 61.9 38.19 6.8 15.55 11.4 43.64 0 72.41-6.2 15.6-22.6 34.66-62 34.66l-36.2 0.01zm-2563.7-247.73v-125.55h41.8c21.9 0 44.2 14.43 52.4 31.34 6.5 13.45 11 39.65-0.6 64.27-15.2 32.45-48.6 29.57-51.9 29.95l-41.7-0.01" fill-rule="evenodd" transform="matrix(.12636 0 0 -.12636 -2.8219 78.275)"/></svg>
